<?xml version="1.0" encoding="utf-8"?>
<!-- Generator: Adobe Illustrator 16.0.0, SVG Export Plug-In . SVG Version: 6.00 Build 0)  -->
<!DOCTYPE svg PUBLIC "-//W3C//DTD SVG 1.1//EN" "http://www.w3.org/Graphics/SVG/1.1/DTD/svg11.dtd">
<svg version="1.1" id="Layer_1" xmlns="http://www.w3.org/2000/svg" xmlns:xlink="http://www.w3.org/1999/xlink" x="0px" y="0px"
	 width="100px" height="50px" viewBox="0 0 100 50" enable-background="new 0 0 100 50" xml:space="preserve">
<rect display="none" fill-rule="evenodd" clip-rule="evenodd" fill="#CD00FF" width="50" height="50"/>
<rect x="50" display="none" fill-rule="evenodd" clip-rule="evenodd" fill="#FF0000" width="50" height="50"/>
<g>
	<g opacity="0.5">
		<path fill-rule="evenodd" clip-rule="evenodd" d="M80.215,21.389l-3.211-5.79c-0.742-1.334-1.396-2.508-1.739-3.126
			c-0.819-1.418-2.579-1.9-3.962-1.069l-0.844,0.507c-1.398,0.84-1.877,2.701-1.07,4.156l1.632,2.942c-0.005,0-0.011,0-0.015,0
			c0.344,0.617,0.644,1.146,0.924,1.64l1.077,1.942c0.928,1.767,1.071,2.6,0.453,3.997l-2.386,4.3
			c-0.023,0.043-0.044,0.077-0.068,0.121h0.001l-1.622,2.925c-0.807,1.455-0.328,3.316,1.07,4.156l0.844,0.507
			c1.398,0.84,3.186,0.342,3.992-1.113l0.298-0.537c0.839-1.526,2.409-4.377,3.568-6.432l1.316-2.374l0.05-0.03
			C82.117,25.247,81.978,24.599,80.215,21.389z"/>
	</g>
	<g>
		<path fill="none" stroke="#000000" stroke-miterlimit="10" d="M80.215,21.389l-3.211-5.79c-0.742-1.334-1.396-2.508-1.739-3.126
			c-0.819-1.418-2.579-1.9-3.962-1.069l-0.844,0.507c-1.398,0.84-1.877,2.701-1.07,4.156l1.632,2.942c-0.005,0-0.011,0-0.015,0
			c0.344,0.617,0.644,1.146,0.924,1.64l1.077,1.942c0.928,1.767,1.071,2.6,0.453,3.997l-2.386,4.3
			c-0.023,0.043-0.044,0.077-0.068,0.121h0.001l-1.622,2.925c-0.807,1.455-0.328,3.316,1.07,4.156l0.844,0.507
			c1.398,0.84,3.186,0.342,3.992-1.113l0.298-0.537c0.839-1.526,2.409-4.377,3.568-6.432l1.316-2.374l0.05-0.03
			C82.117,25.247,81.978,24.599,80.215,21.389z"/>
	</g>
</g>
<g>
	<g opacity="0.5">
		<path fill-rule="evenodd" clip-rule="evenodd" d="M30.615,33.934l-1.623-2.925c0,0,0.001,0,0.001,0
			c-0.027-0.049-0.05-0.088-0.077-0.136l-2.376-4.282c-0.621-1.403-0.476-2.237,0.46-4.016l1.056-1.904
			c0.284-0.5,0.588-1.036,0.937-1.662c-0.004,0-0.01,0-0.015,0l1.632-2.942c0.807-1.455,0.328-3.316-1.07-4.156l-0.844-0.507
			c-1.383-0.831-3.143-0.349-3.961,1.069c-0.354,0.635-1.034,1.857-1.8,3.233l-3.107,5.603c-1.804,3.28-1.958,3.914-0.353,6.802
			l0.051,0.03l1.339,2.415c1.155,2.05,2.708,4.867,3.542,6.385l0.301,0.543c0.807,1.455,2.594,1.953,3.992,1.113l0.844-0.507
			C30.943,37.25,31.422,35.389,30.615,33.934z"/>
	</g>
	<g>
		<path fill="none" stroke="#000000" stroke-miterlimit="10" d="M30.615,33.934l-1.623-2.925c0,0,0.001,0,0.001,0
			c-0.027-0.049-0.05-0.088-0.077-0.136l-2.376-4.282c-0.621-1.403-0.476-2.237,0.46-4.016l1.056-1.904
			c0.284-0.5,0.588-1.036,0.937-1.662c-0.004,0-0.01,0-0.015,0l1.632-2.942c0.807-1.455,0.328-3.316-1.07-4.156l-0.844-0.507
			c-1.383-0.831-3.143-0.349-3.961,1.069c-0.354,0.635-1.034,1.857-1.8,3.233l-3.107,5.603c-1.804,3.28-1.958,3.914-0.353,6.802
			l0.051,0.03l1.339,2.415c1.155,2.05,2.708,4.867,3.542,6.385l0.301,0.543c0.807,1.455,2.594,1.953,3.992,1.113l0.844-0.507
			C30.943,37.25,31.422,35.389,30.615,33.934z"/>
	</g>
</g>
</svg>
