<?xml version="1.0" encoding="utf-8"?>
<!-- Generator: Adobe Illustrator 16.0.0, SVG Export Plug-In . SVG Version: 6.00 Build 0)  -->
<!DOCTYPE svg PUBLIC "-//W3C//DTD SVG 1.1//EN" "http://www.w3.org/Graphics/SVG/1.1/DTD/svg11.dtd">
<svg version="1.1" id="Layer_1" xmlns="http://www.w3.org/2000/svg" xmlns:xlink="http://www.w3.org/1999/xlink" x="0px" y="0px"
	 width="140px" height="50px" viewBox="0 0 140 50" enable-background="new 0 0 140 50" xml:space="preserve">
<rect x="85" y="13" fill-rule="evenodd" clip-rule="evenodd" fill="#FFFFFF" width="40" height="25"/>
<path opacity="0.25" fill-rule="evenodd" clip-rule="evenodd" d="M99.5,15.5l20,11l-3,2L99.5,15.5z"/>
<g>
	<g>
		<path fill-rule="evenodd" clip-rule="evenodd" fill="#00ADEF" d="M132.375,4.994h-55c-2.762,0-5,2.238-5,5v30c0,2.762,2.238,5,5,5
			h55c2.762,0,5-2.238,5-5v-30C137.375,7.232,135.137,4.994,132.375,4.994z M99.375,34.994v-19l17,9.442L99.375,34.994z"/>
	</g>
</g>
<rect x="13" y="9" fill-rule="evenodd" clip-rule="evenodd" fill="#FFFFFF" width="44" height="29"/>
<path opacity="0.25" fill-rule="evenodd" clip-rule="evenodd" d="M27.674,16l20,14l4-4L27.674,16z"/>
<g>
	<g>
		<path fill="#E52D27" d="M68.09,11.605c0,0-0.664-4.704-2.703-6.775c-2.588-2.718-5.486-2.732-6.816-2.891
			c-9.52-0.69-23.798-0.69-23.798-0.69h-0.03c0,0-14.279,0-23.798,0.69c-1.33,0.159-4.228,0.173-6.816,2.891
			c-2.04,2.071-2.703,6.775-2.703,6.775s-0.68,5.523-0.68,11.047v5.179c0,5.523,0.68,11.047,0.68,11.047s0.664,4.703,2.703,6.775
			c2.588,2.719,5.987,2.633,7.501,2.916c5.442,0.525,23.128,0.686,23.128,0.686s14.293-0.021,23.813-0.711
			c1.33-0.16,4.229-0.172,6.816-2.891c2.039-2.072,2.703-6.775,2.703-6.775s0.68-5.523,0.68-11.047v-5.179
			C68.77,17.129,68.09,11.605,68.09,11.605z M27.758,34.253l-0.009-18.012l18.009,9.011L27.758,34.253z"/>
	</g>
</g>
</svg>
