<?xml version="1.0" encoding="utf-8"?>
<!-- Generator: Adobe Illustrator 16.0.0, SVG Export Plug-In . SVG Version: 6.00 Build 0)  -->
<!DOCTYPE svg PUBLIC "-//W3C//DTD SVG 1.1//EN" "http://www.w3.org/Graphics/SVG/1.1/DTD/svg11.dtd">
<svg version="1.1" id="Layer_1" xmlns="http://www.w3.org/2000/svg" xmlns:xlink="http://www.w3.org/1999/xlink" x="0px" y="0px"
	 width="100px" height="50px" viewBox="0 0 100 50" enable-background="new 0 0 100 50" xml:space="preserve">
<rect display="none" fill-rule="evenodd" clip-rule="evenodd" fill="#CD00FF" width="50" height="50"/>
<rect x="50" display="none" fill-rule="evenodd" clip-rule="evenodd" fill="#FF0000" width="50" height="50"/>
<g display="none">
	<g display="inline" opacity="0.5">
		<path fill-rule="evenodd" clip-rule="evenodd" d="M80.215,21.389l-3.211-5.79c-0.742-1.334-1.396-2.508-1.739-3.126
			c-0.819-1.418-2.579-1.9-3.962-1.069l-0.844,0.507c-1.398,0.84-1.877,2.701-1.07,4.156l1.632,2.942c-0.005,0-0.011,0-0.015,0
			c0.344,0.617,0.644,1.146,0.924,1.64l1.077,1.942c0.928,1.767,1.071,2.6,0.453,3.997l-2.386,4.3
			c-0.023,0.043-0.044,0.077-0.068,0.121h0.001l-1.622,2.925c-0.807,1.455-0.328,3.316,1.07,4.156l0.844,0.507
			c1.398,0.84,3.186,0.342,3.992-1.113l0.298-0.537c0.839-1.526,2.409-4.377,3.568-6.432l1.316-2.374l0.05-0.03
			C82.117,25.247,81.978,24.599,80.215,21.389z"/>
	</g>
	<g display="inline">
		<path fill="none" stroke="#000000" stroke-miterlimit="10" d="M80.215,21.389l-3.211-5.79c-0.742-1.334-1.396-2.508-1.739-3.126
			c-0.819-1.418-2.579-1.9-3.962-1.069l-0.844,0.507c-1.398,0.84-1.877,2.701-1.07,4.156l1.632,2.942c-0.005,0-0.011,0-0.015,0
			c0.344,0.617,0.644,1.146,0.924,1.64l1.077,1.942c0.928,1.767,1.071,2.6,0.453,3.997l-2.386,4.3
			c-0.023,0.043-0.044,0.077-0.068,0.121h0.001l-1.622,2.925c-0.807,1.455-0.328,3.316,1.07,4.156l0.844,0.507
			c1.398,0.84,3.186,0.342,3.992-1.113l0.298-0.537c0.839-1.526,2.409-4.377,3.568-6.432l1.316-2.374l0.05-0.03
			C82.117,25.247,81.978,24.599,80.215,21.389z"/>
	</g>
</g>
<g display="none">
	<g display="inline" opacity="0.5">
		<path fill-rule="evenodd" clip-rule="evenodd" d="M30.615,33.934l-1.623-2.925h0.001c-0.027-0.049-0.05-0.088-0.077-0.136
			l-2.376-4.282c-0.621-1.403-0.476-2.237,0.46-4.016l1.056-1.904c0.284-0.5,0.588-1.036,0.937-1.662c-0.004,0-0.01,0-0.015,0
			l1.632-2.942c0.807-1.455,0.328-3.316-1.07-4.156l-0.844-0.507c-1.383-0.831-3.143-0.349-3.961,1.069
			c-0.354,0.635-1.034,1.857-1.8,3.233l-3.107,5.603c-1.804,3.28-1.958,3.914-0.353,6.802l0.051,0.03l1.339,2.415
			c1.155,2.05,2.708,4.867,3.542,6.385l0.301,0.543c0.807,1.455,2.594,1.953,3.992,1.113l0.844-0.507
			C30.943,37.25,31.422,35.389,30.615,33.934z"/>
	</g>
	<g display="inline">
		<path fill="none" stroke="#000000" stroke-miterlimit="10" d="M30.615,33.934l-1.623-2.925h0.001
			c-0.027-0.049-0.05-0.088-0.077-0.136l-2.376-4.282c-0.621-1.403-0.476-2.237,0.46-4.016l1.056-1.904
			c0.284-0.5,0.588-1.036,0.937-1.662c-0.004,0-0.01,0-0.015,0l1.632-2.942c0.807-1.455,0.328-3.316-1.07-4.156l-0.844-0.507
			c-1.383-0.831-3.143-0.349-3.961,1.069c-0.354,0.635-1.034,1.857-1.8,3.233l-3.107,5.603c-1.804,3.28-1.958,3.914-0.353,6.802
			l0.051,0.03l1.339,2.415c1.155,2.05,2.708,4.867,3.542,6.385l0.301,0.543c0.807,1.455,2.594,1.953,3.992,1.113l0.844-0.507
			C30.943,37.25,31.422,35.389,30.615,33.934z"/>
	</g>
</g>
<g opacity="0.25">
	<g>
		<path fill-rule="evenodd" clip-rule="evenodd" d="M82.186,22.334l-3.218-5.802c-0.727-1.307-1.364-2.452-1.702-3.06
			c-0.819-1.418-2.579-1.9-3.962-1.069l-0.844,0.507c-1.398,0.84-1.877,2.701-1.07,4.156l1.632,2.942c-0.004,0-0.011,0-0.015,0
			c0.343,0.617,0.644,1.146,0.924,1.64l1.077,1.942c0.928,1.767,1.071,2.6,0.453,3.997l-2.386,4.3
			c-0.023,0.043-0.044,0.077-0.068,0.121h0.001l-1.622,2.925c-0.807,1.455-0.328,3.316,1.07,4.156l0.844,0.507
			c1.398,0.84,3.186,0.342,3.992-1.113l0.293-0.528c0.826-1.504,2.371-4.309,3.527-6.361l1.36-2.452l0.052-0.031
			C84.126,26.23,83.976,25.592,82.186,22.334z"/>
	</g>
</g>
<g>
	<g>
		<path fill-rule="evenodd" clip-rule="evenodd" fill="#FFFFFF" d="M80.215,21.389l-3.211-5.79
			c-0.742-1.334-1.396-2.508-1.739-3.126c-0.819-1.418-2.579-1.9-3.962-1.069l-0.844,0.507c-1.398,0.84-1.877,2.701-1.07,4.156
			l1.632,2.942c-0.005,0-0.011,0-0.015,0c0.344,0.617,0.644,1.146,0.924,1.64l1.077,1.942c0.928,1.767,1.071,2.6,0.453,3.997
			l-2.386,4.3c-0.023,0.043-0.044,0.077-0.068,0.121h0.001l-1.622,2.925c-0.807,1.455-0.328,3.316,1.07,4.156l0.844,0.507
			c1.398,0.84,3.186,0.342,3.992-1.113l0.298-0.537c0.839-1.526,2.409-4.377,3.568-6.432l1.316-2.374l0.05-0.03
			C82.117,25.247,81.978,24.599,80.215,21.389z"/>
	</g>
</g>
<g opacity="0.25">
	<g>
		<path fill-rule="evenodd" clip-rule="evenodd" d="M32.615,35.434l-1.623-2.925c0,0,0.001,0,0.001,0
			c-0.024-0.044-0.045-0.079-0.069-0.122l-2.383-4.297c-0.621-1.401-0.476-2.235,0.458-4.011l1.064-1.919
			c0.282-0.497,0.584-1.03,0.93-1.651c-0.004,0-0.01,0-0.014,0l1.631-2.942c0.807-1.455,0.328-3.316-1.07-4.156l-0.844-0.507
			c-1.383-0.831-3.142-0.349-3.961,1.069c-0.354,0.636-1.037,1.862-1.805,3.243l-3.157,5.69c-1.753,3.196-1.889,3.846-0.298,6.705
			l0.05,0.03l1.313,2.366c1.154,2.048,2.719,4.887,3.562,6.42l0.309,0.557c0.807,1.455,2.593,1.953,3.992,1.113l0.844-0.507
			C32.943,38.75,33.422,36.889,32.615,35.434z"/>
	</g>
</g>
<g>
	<g>
		<path fill-rule="evenodd" clip-rule="evenodd" fill="#FFFFFF" d="M30.616,34.449l-1.623-2.925c0,0,0.001,0,0.001,0
			c-0.027-0.049-0.05-0.088-0.077-0.136l-2.376-4.282c-0.622-1.403-0.476-2.237,0.46-4.016l1.056-1.904
			c0.284-0.5,0.588-1.036,0.937-1.662c-0.004,0-0.01,0-0.015,0l1.632-2.942c0.807-1.455,0.328-3.316-1.07-4.156l-0.844-0.507
			c-1.383-0.831-3.143-0.349-3.961,1.069c-0.354,0.636-1.037,1.862-1.805,3.243l-3.157,5.69c-1.753,3.196-1.889,3.846-0.298,6.705
			l0.05,0.03l1.313,2.366c1.154,2.048,2.719,4.887,3.562,6.42l0.309,0.557c0.807,1.455,2.594,1.953,3.992,1.113l0.844-0.507
			C30.944,37.766,31.422,35.904,30.616,34.449z"/>
	</g>
</g>
</svg>
